<svg id="Layer_2" data-name="Layer 2" xmlns="http://www.w3.org/2000/svg" xmlns:xlink="http://www.w3.org/1999/xlink" viewBox="0 0 574.688 350.304">
  <defs>
    <style>
      .cls-1 {
        fill: #ea6230;
      }

      .cls-2 {
        fill: #fff;
      }

      .cls-3 {
        fill: none;
      }

      .cls-4 {
        fill: url(#linear-gradient);
      }

      .cls-5 {
        fill: url(#linear-gradient-2);
      }

      .cls-6 {
        fill: url(#linear-gradient-3);
      }

      .cls-7 {
        fill: url(#linear-gradient-4);
      }

      .cls-8 {
        fill: url(#linear-gradient-5);
      }

      .cls-9 {
        fill: url(#linear-gradient-6);
      }

      .cls-10 {
        fill: url(#linear-gradient-7);
      }

      .cls-11 {
        fill: #1b171b;
      }

      .cls-12 {
        fill: #1a171b;
      }
    </style>
    <linearGradient id="linear-gradient" x1="75.897" y1="300.477" x2="236.694" y2="300.477" gradientUnits="userSpaceOnUse">
      <stop offset="0.285" stop-color="#e95f2f"/>
      <stop offset="1" stop-color="#fbc91e"/>
    </linearGradient>
    <linearGradient id="linear-gradient-2" x1="293.342" y1="295.816" x2="133.8" y2="317.801" gradientUnits="userSpaceOnUse">
      <stop offset="0.024" stop-color="#522c84"/>
      <stop offset="0.141" stop-color="#634191"/>
      <stop offset="0.33" stop-color="#7a5ea1"/>
      <stop offset="0.52" stop-color="#8a73ad"/>
      <stop offset="0.707" stop-color="#947fb5"/>
      <stop offset="0.889" stop-color="#9783b7"/>
    </linearGradient>
    <linearGradient id="linear-gradient-3" x1="-117.805" y1="-280.352" x2="-120.115" y2="-190.785" gradientTransform="translate(307.075 100.525) rotate(-120.001)" gradientUnits="userSpaceOnUse">
      <stop offset="0" stop-color="#fff" stop-opacity="0.5"/>
      <stop offset="1" stop-color="#fff" stop-opacity="0"/>
    </linearGradient>
    <linearGradient id="linear-gradient-4" x1="-242.062" y1="133.397" x2="-401.679" y2="155.392" gradientTransform="translate(-20.648 26.111) rotate(-120.001)" xlink:href="#linear-gradient-2"/>
    <linearGradient id="linear-gradient-5" x1="291.204" y1="-662.97" x2="288.896" y2="-573.475" gradientTransform="translate(-86.998 -290.56) rotate(120.001)" xlink:href="#linear-gradient-3"/>
    <linearGradient id="linear-gradient-6" x1="166.788" y1="-249.196" x2="7.157" y2="-227.199" gradientTransform="translate(12.42 30.464) rotate(120.001)" xlink:href="#linear-gradient-2"/>
    <linearGradient id="linear-gradient-7" x1="417.85" y1="-117.86" x2="415.541" y2="-28.327" gradientTransform="translate(-228.306 246.61)" xlink:href="#linear-gradient-3"/>
  </defs>
  <title>KMP_Badges_LKU_2019</title>
  <path class="cls-1" d="M138.432,84.963a57.48,57.48,0,0,1,18.926-14.224,75.015,75.015,0,0,1,27.788-6.129,87.145,87.145,0,0,1,14.726.73c25.994,3.5,49.786,16.029,74.843,23.781,42.205,13.057,86.9,12.183,130.478,8.792,45.084-3.508,90.776-10.3,136.07-6.817,16.3,1.255,33.089,4.542,46.781,13.983,22.345,15.406,31.654,43.446,38.4,69.735,11.13,43.337,19.117,88.166,15.664,133.06-1.584,20.6-4.175,47.359-19.258,63.014-10.481,10.832-26.158,14.625-41.069,16.829-30.076,4.446-60.581,4.441-90.877,2.75l-.077,0c-30.455-1.7-60.8-4.9-91.223-7.117-30.321-2.2-60.958-3.129-91.245.036-29.535,3.085-58.032,10.953-86.709,18.31-28.744,7.375-58.792,14.99-88.722,12.778-11.9-.879-23.882-3.093-33.923-9.893C86.671,396.116,79.185,382.1,74.8,367.8c-6.43-20.991-7.242-43.092-6.171-64.872a469.445,469.445,0,0,1,7.757-64.893c7.254-38,18.638-75.671,35.542-110.532C119.136,112.64,127.234,97.243,138.432,84.963Z" transform="translate(-68.237 -64.556)"/>
  <path class="cls-2" d="M136.131,105.476a107.057,107.057,0,0,1,6.791-8.285c13.222-14.559,33.927-20.7,53.23-18.907,11.254,1.046,22.1,4.508,32.9,7.643C241,89.394,253.181,93.106,265.14,96.92c42.961,13.7,86.369,15.423,131.041,12.628,23.653-1.48,47.243-3.8,70.893-5.319,12.527-.8,25.067-1.484,37.614-1.892,20.1-.655,41.812-1.944,60.1,7.882,15.874,8.531,28.418,22.587,36.69,38.463a101.561,101.561,0,0,1,6.284,14.8c3.538,10.607,6.432,21.431,9.045,32.3,8.8,36.591,13.187,75.521,9.254,113.083-1.6,15.275-3.817,31.672-12.474,44.785-6.022,9.122-14.3,13.253-24.325,16.7-30.744,10.564-63.991,10.829-96.106,9.069-30.636-1.679-61.241-3.875-91.874-5.613-14.248-.81-28.475-1.757-42.745-2.14-20.023-.538-40.626-.618-60.673,2.229-20.343,2.89-40.331,7.775-60.439,11.907l-10.672,2.192s-30.408,6.382-42.421,7.509a316.442,316.442,0,0,1-43.173,3.378s-21.774.376-33.787-10.136c-13.26-11.6-20-29.372-22.436-46.444-2.935-20.575-2.229-41.944.11-62.539,1.952-17.194,5.163-34.216,8.7-51.145,4.3-20.56,9.342-41.041,14.885-61.271,5.759-21.016,13.944-43.152,26.783-60.881Q135.769,105.967,136.131,105.476Z" transform="translate(-68.237 -64.556)"/>
  <g>
    <path class="cls-3" d="M262.511,261.3c-20.842-15.534-44.034-31.754-61.175-47.812-3.038,25.765-5.467,53.969-10.751,76.916C214.406,280.156,240.026,268.179,262.511,261.3Z" transform="translate(-68.237 -64.556)"/>
    <path class="cls-4" d="M157.176,300.482h.005a.446.446,0,0,0-.067-.011A.448.448,0,0,1,157.176,300.482Z" transform="translate(-68.237 -64.556)"/>
    <path class="cls-5" d="M262.477,260.909c-22.487,6.875-48.106,18.855-71.927,29.106-37.118,15.974-69.789,27.846-79.47,9.461a41.381,41.381,0,0,0,1.45,7.086c.093.29.18.58.282.87a34.311,34.311,0,0,0,15.8,19.451c.625.408,1.263.81,1.916,1.2.21.1.415.212.631.309a59.733,59.733,0,0,0,16.145,6.34q4.529.948,9.074,1.767c.023,0,.045.007.069.011A346.981,346.981,0,0,0,289.257,334.7a55.685,55.685,0,0,0,21.984-10.346C320.736,306.867,294.4,284.7,262.477,260.909Z" transform="translate(-68.237 -64.556)"/>
    <path class="cls-6" d="M190.6,291.218c-37,15.917-69.614,27.587-79.324,9.329-.028-.054-.063-.1-.093-.153.131,1.014.269,1.642.463,2.619.043.254.172.783.221,1.034s.166.678.227.939c.08.356.206.742.3,1.1,24.57,17.691,64.266,25.934,107.337,19.667,32.157-4.678,60.249-16.64,80.138-32.369-9.314-9.9-22.7-20.435-37.283-31.31C240.069,268.969,214.427,280.968,190.6,291.218Z" transform="translate(-68.237 -64.556)"/>
    <path class="cls-7" d="M201.1,213.214c17.2,16.038,40.38,32.236,61.169,47.739,32.393,24.158,58.864,46.74,47.785,64.319a44.224,44.224,0,0,0,5.554-5.023c.206-.228.413-.447.614-.68a34.323,34.323,0,0,0,8.946-23.405c.041-.745.069-1.5.079-2.261-.015-.231-.027-.463-.047-.7a59.768,59.768,0,0,0-2.584-17.154q-1.443-4.392-3.007-8.739c-.008-.02-.016-.044-.025-.066a347.038,347.038,0,0,0-67.973-114.117,55.678,55.678,0,0,0-19.953-13.864C211.773,139.783,205.742,173.678,201.1,213.214Z" transform="translate(-68.237 -64.556)"/>
    <path class="cls-8" d="M263.43,260.435c32.281,24.087,58.7,46.1,47.74,63.638-.1.161-.5.712-.469.654.811-.621,1.754-1.453,2.506-2.109.2-.167.436-.419.63-.588s.3-.293.5-.475c.27-.248.8-.814,1.06-1.071,3.034-30.125-9.661-68.376-36.625-102.542-20.129-25.512-44.535-43.86-68.1-53.218-3.918,13.016-6.347,29.873-8.475,47.943C219.424,228.717,242.635,244.923,263.43,260.435Z" transform="translate(-68.237 -64.556)"/>
    <path class="cls-9" d="M190.515,290.168c5.29-22.911,7.724-51.09,10.757-76.846,4.725-40.129,10.81-74.383,31.573-73.579a41.92,41.92,0,0,0-6.893-2.259c-.3-.064-.591-.134-.894-.191a34.31,34.31,0,0,0-24.742,3.954q-1,.5-2,1.06c-.193.132-.389.255-.581.393a59.782,59.782,0,0,0-13.566,10.811q-3.081,3.448-6.064,6.976c-.014.018-.031.036-.046.055a347.041,347.041,0,0,0-64.84,115.924,57.652,57.652,0,0,0-1.964,24.321C121.652,317.751,153.953,305.919,190.515,290.168Z" transform="translate(-68.237 -64.556)"/>
    <path class="cls-10" d="M200.609,212.81c4.717-40,10.765-74.085,31.434-73.365.059,0-1.485-.593-2.43-.912-.241-.09-.623-.2-.866-.285-.259-.083-.536-.162-.794-.241-.35-.108-.9-.2-1.255-.3-27.605,12.434-54.452,42.625-70.561,83.062-12.028,30.19-15.715,60.5-12.038,85.588,13.233-3.117,29.046-9.443,45.758-16.635C195.143,266.781,197.572,238.575,200.609,212.81Z" transform="translate(-68.237 -64.556)"/>
  </g>
  <g>
    <path class="cls-11" d="M351.371,292.734q1.554-.3,3.423-.463t3.719-.166a24.236,24.236,0,0,1,3.866.315,9.628,9.628,0,0,1,3.5,1.258,7.311,7.311,0,0,1,2.535,2.627,8.644,8.644,0,0,1,.981,4.384,9.063,9.063,0,0,1-.852,4.125,7.866,7.866,0,0,1-2.256,2.757,9.079,9.079,0,0,1-3.2,1.554,14.29,14.29,0,0,1-3.718.481h-.592c-.272,0-.555,0-.852-.018s-.586-.031-.869-.056a5.974,5.974,0,0,1-.611-.074v8.917h-5.069Zm7.548,3.738c-.493,0-.962.017-1.4.054s-.8.081-1.074.13v8.4a4.312,4.312,0,0,0,.444.073c.2.025.407.044.63.056s.437.018.647.018h.462a10.689,10.689,0,0,0,1.98-.184,4.894,4.894,0,0,0,1.758-.685,3.582,3.582,0,0,0,1.239-1.388,5.057,5.057,0,0,0,.463-2.331,4.1,4.1,0,0,0-.445-2.016,3.631,3.631,0,0,0-1.165-1.277,4.565,4.565,0,0,0-1.646-.666A9.631,9.631,0,0,0,358.919,296.472Z" transform="translate(-68.237 -64.556)"/>
    <path class="cls-11" d="M372.535,292.734q.852-.147,1.832-.277t1.961-.2c.654-.049,1.288-.086,1.906-.11s1.183-.038,1.7-.038a19.14,19.14,0,0,1,3.57.333,9.784,9.784,0,0,1,3.146,1.147,6.133,6.133,0,0,1,2.219,2.239,6.985,6.985,0,0,1,.832,3.571,8.484,8.484,0,0,1-1.479,5.179,7.636,7.636,0,0,1-3.959,2.776l1.812,1.146,5.92,9.879h-5.845l-5.883-10.138-2.664-.481v10.619h-5.07Zm7.771,3.885c-.519,0-1.03.013-1.536.037a5.685,5.685,0,0,0-1.165.149v7.51h2.145a5.4,5.4,0,0,0,3.367-.961,3.758,3.758,0,0,0,1.258-3.183,3.355,3.355,0,0,0-1.035-2.609A4.368,4.368,0,0,0,380.306,296.619Z" transform="translate(-68.237 -64.556)"/>
    <path class="cls-11" d="M392.775,305.425q0-6.474,2.848-9.971t8.14-3.5a11.416,11.416,0,0,1,4.848.962,9.149,9.149,0,0,1,3.44,2.738,11.95,11.95,0,0,1,2.035,4.255,21.2,21.2,0,0,1,.666,5.513q0,6.476-2.867,9.971a9.909,9.909,0,0,1-8.122,3.5,11.527,11.527,0,0,1-4.884-.962,8.977,8.977,0,0,1-3.422-2.739,12.121,12.121,0,0,1-2.016-4.255A21.191,21.191,0,0,1,392.775,305.425Zm5.328,0a18.142,18.142,0,0,0,.333,3.608,9.292,9.292,0,0,0,1.017,2.83,5.154,5.154,0,0,0,1.757,1.85,4.747,4.747,0,0,0,2.553.666,4.814,4.814,0,0,0,4.182-2.108q1.479-2.111,1.479-6.846a18.516,18.516,0,0,0-.314-3.515,9.771,9.771,0,0,0-.981-2.848,5.1,5.1,0,0,0-1.738-1.907,5.214,5.214,0,0,0-6.809,1.481Q398.1,300.8,398.1,305.425Z" transform="translate(-68.237 -64.556)"/>
    <path class="cls-11" d="M418.378,292.476h15.356v4.513H423.448v6.4h9.471V307.9h-9.471v10.471h-5.07Z" transform="translate(-68.237 -64.556)"/>
    <path class="cls-11" d="M437.174,292.476H452.53v4.513H442.243v6.032h9.362v4.513h-9.362v6.327h10.471v4.514h-15.54Z" transform="translate(-68.237 -64.556)"/>
    <path class="cls-11" d="M467.661,311.419a2.41,2.41,0,0,0-.869-1.924,9.619,9.619,0,0,0-2.182-1.35q-1.314-.612-2.85-1.258a14.582,14.582,0,0,1-2.849-1.591,8.091,8.091,0,0,1-2.182-2.35,6.723,6.723,0,0,1-.87-3.589,7.864,7.864,0,0,1,.629-3.274,6.125,6.125,0,0,1,1.8-2.312,7.693,7.693,0,0,1,2.756-1.37,13.2,13.2,0,0,1,3.552-.444,22.28,22.28,0,0,1,4.255.389,10.775,10.775,0,0,1,3.293,1.129l-1.591,4.254a8.9,8.9,0,0,0-2.442-.943,13.9,13.9,0,0,0-3.515-.426,4.5,4.5,0,0,0-2.72.7,2.234,2.234,0,0,0-.943,1.887,2.328,2.328,0,0,0,.869,1.85,10.012,10.012,0,0,0,2.184,1.369q1.313.63,2.848,1.3a15.249,15.249,0,0,1,2.849,1.61,8.2,8.2,0,0,1,2.184,2.33,6.411,6.411,0,0,1,.869,3.46,8.543,8.543,0,0,1-.685,3.571,6.759,6.759,0,0,1-1.924,2.5,8.127,8.127,0,0,1-3,1.479,14.647,14.647,0,0,1-3.866.482,20.555,20.555,0,0,1-4.884-.519,14.88,14.88,0,0,1-3.108-1.036l1.628-4.329a9.94,9.94,0,0,0,1.054.481,13.684,13.684,0,0,0,1.461.482,17.017,17.017,0,0,0,1.721.369,11.549,11.549,0,0,0,1.869.148,6.509,6.509,0,0,0,3.459-.759A2.543,2.543,0,0,0,467.661,311.419Z" transform="translate(-68.237 -64.556)"/>
    <path class="cls-11" d="M487.271,311.419a2.41,2.41,0,0,0-.869-1.924,9.627,9.627,0,0,0-2.183-1.35q-1.314-.612-2.85-1.258a14.574,14.574,0,0,1-2.848-1.591,8.094,8.094,0,0,1-2.183-2.35,6.723,6.723,0,0,1-.87-3.589,7.864,7.864,0,0,1,.629-3.274,6.135,6.135,0,0,1,1.8-2.312,7.69,7.69,0,0,1,2.757-1.37,13.192,13.192,0,0,1,3.551-.444,22.28,22.28,0,0,1,4.255.389,10.775,10.775,0,0,1,3.293,1.129l-1.59,4.254a8.91,8.91,0,0,0-2.443-.943,13.9,13.9,0,0,0-3.515-.426,4.5,4.5,0,0,0-2.719.7,2.235,2.235,0,0,0-.944,1.887,2.326,2.326,0,0,0,.87,1.85,10,10,0,0,0,2.183,1.369q1.313.63,2.849,1.3a15.273,15.273,0,0,1,2.848,1.61,8.2,8.2,0,0,1,2.184,2.33,6.411,6.411,0,0,1,.869,3.46,8.544,8.544,0,0,1-.684,3.571,6.78,6.78,0,0,1-1.924,2.5,8.127,8.127,0,0,1-3,1.479,14.649,14.649,0,0,1-3.867.482,20.547,20.547,0,0,1-4.883-.519,14.872,14.872,0,0,1-3.109-1.036l1.628-4.329a9.969,9.969,0,0,0,1.055.481,13.684,13.684,0,0,0,1.461.482,16.958,16.958,0,0,0,1.721.369,11.53,11.53,0,0,0,1.869.148,6.512,6.512,0,0,0,3.459-.759A2.545,2.545,0,0,0,487.271,311.419Z" transform="translate(-68.237 -64.556)"/>
    <path class="cls-11" d="M496.226,292.476h5.068v25.9h-5.068Z" transform="translate(-68.237 -64.556)"/>
    <path class="cls-11" d="M505.439,305.425q0-6.474,2.848-9.971t8.14-3.5a11.416,11.416,0,0,1,4.848.962,9.141,9.141,0,0,1,3.44,2.738,11.95,11.95,0,0,1,2.035,4.255,21.2,21.2,0,0,1,.666,5.513q0,6.476-2.867,9.971a9.909,9.909,0,0,1-8.122,3.5,11.527,11.527,0,0,1-4.884-.962,8.977,8.977,0,0,1-3.422-2.739,12.121,12.121,0,0,1-2.016-4.255A21.191,21.191,0,0,1,505.439,305.425Zm5.328,0a18.142,18.142,0,0,0,.333,3.608,9.292,9.292,0,0,0,1.017,2.83,5.162,5.162,0,0,0,1.757,1.85,4.747,4.747,0,0,0,2.553.666,4.814,4.814,0,0,0,4.182-2.108q1.479-2.111,1.479-6.846a18.516,18.516,0,0,0-.314-3.515,9.771,9.771,0,0,0-.981-2.848,5.1,5.1,0,0,0-1.738-1.907,5.214,5.214,0,0,0-6.809,1.481Q510.767,300.8,510.767,305.425Z" transform="translate(-68.237 -64.556)"/>
    <path class="cls-11" d="M537.481,304.87l-2.035-4.07h-.185l.592,4.07v13.5h-4.811V292.29h3.7l9.805,13.8,1.961,3.959h.186l-.592-3.959V292.476h4.809v26.085h-3.7Z" transform="translate(-68.237 -64.556)"/>
    <path class="cls-11" d="M568.116,312.641h-7.955l-1.961,5.734h-5.069l9.324-26.085h3.737l9.324,26.085h-5.328Zm-6.66-4.071h5.55l-1.924-5.772-.777-4.069h-.185l-.777,4.106Z" transform="translate(-68.237 -64.556)"/>
    <path class="cls-11" d="M594.127,318.375H577.736v-25.9H582.8v21.385h11.322Z" transform="translate(-68.237 -64.556)"/>
  </g>
  <g>
    <path class="cls-1" d="M372.557,248.652l.582-6.672h-.232l-1.669,5.376-5.785,12.528h-1.708l-6.093-12.575-1.708-5.329h-.195l.777,6.624v17.472H351.48v-33.6h4.852l7.258,15.36,1.281,3.84h.156l1.164-3.936,6.871-15.264h4.813v33.6h-5.318Z" transform="translate(-68.237 -64.556)"/>
    <path class="cls-1" d="M395.924,258.636h-8.346l-2.056,7.44H380.2l9.783-33.84h3.92l9.782,33.84H398.1Zm-6.987-5.28h5.823l-2.019-7.488-.815-5.28h-.194l-.815,5.328Z" transform="translate(-68.237 -64.556)"/>
    <path class="cls-1" d="M412.771,248.557l-2.135-5.281h-.194l.621,5.281v17.519h-5.046v-33.84H409.9l10.286,17.905,2.057,5.135h.194l-.621-5.135V232.476h5.047v33.84H422.98Z" transform="translate(-68.237 -64.556)"/>
    <path class="cls-1" d="M444.91,258.636h-8.345l-2.057,7.44H429.19l9.782-33.84h3.92l9.782,33.84h-5.59Zm-6.987-5.28h5.823l-2.018-7.488-.816-5.28h-.194l-.814,5.328Z" transform="translate(-68.237 -64.556)"/>
    <path class="cls-1" d="M463.388,248.557h10.131v14.975a9.661,9.661,0,0,1-3.9,2.448,13.951,13.951,0,0,1-4.483.768,11.6,11.6,0,0,1-4.832-1.008,10.026,10.026,0,0,1-3.862-3.144,16.064,16.064,0,0,1-2.563-5.448,29.3,29.3,0,0,1-.931-7.872,25.9,25.9,0,0,1,1.106-8.088,15.8,15.8,0,0,1,2.911-5.424,10.9,10.9,0,0,1,4.057-3.024,11.83,11.83,0,0,1,4.58-.936,17.353,17.353,0,0,1,4.1.432,16.345,16.345,0,0,1,2.814.912l-1.087,5.52a9.561,9.561,0,0,0-2.174-.744,14.765,14.765,0,0,0-3.066-.264,7.451,7.451,0,0,0-3.067.624,6.061,6.061,0,0,0-2.426,2.04,10.55,10.55,0,0,0-1.591,3.624,22.037,22.037,0,0,0-.564,5.376,21.761,21.761,0,0,0,.544,5.208,11.058,11.058,0,0,0,1.514,3.6,6.249,6.249,0,0,0,2.271,2.088,5.948,5.948,0,0,0,2.775.673,6.392,6.392,0,0,0,1.979-.313,4.207,4.207,0,0,0,1.631-.935v-6.336l-5.861-.769Z" transform="translate(-68.237 -64.556)"/>
    <path class="cls-1" d="M477.439,232.476h16.108v5.856H482.756v7.824h9.821v5.856h-9.821v8.208h10.985v5.856h-16.3Z" transform="translate(-68.237 -64.556)"/>
    <path class="cls-1" d="M518.778,248.652l.582-6.672h-.233l-1.669,5.376-5.784,12.528h-1.708l-6.094-12.575-1.708-5.329h-.194l.776,6.624v17.472H497.7v-33.6h4.852l7.259,15.36,1.281,3.84h.155l1.164-3.936,6.872-15.264H524.1v33.6h-5.318Z" transform="translate(-68.237 -64.556)"/>
    <path class="cls-1" d="M528.753,232.476h16.109v5.856H534.071v7.824h9.821v5.856h-9.821v8.208h10.985v5.856h-16.3Z" transform="translate(-68.237 -64.556)"/>
    <path class="cls-1" d="M555.769,248.557l-2.135-5.281h-.194l.621,5.281v17.519h-5.046v-33.84H552.9l10.286,17.905,2.058,5.135h.193l-.621-5.135V232.476h5.047v33.84h-3.882Z" transform="translate(-68.237 -64.556)"/>
    <path class="cls-1" d="M593.81,238.332h-7.919v27.744h-5.317V238.332h-7.958v-5.856H593.81Z" transform="translate(-68.237 -64.556)"/>
  </g>
  <g>
    <path class="cls-12" d="M362.8,196.147h-2.418v17.342h-9.2v-40.6h9.2v17.98l2.149-.812L375.5,172.889h10.48l-13.7,17.052-3.627,2.2,3.761,2.262,15.652,19.082H376.707Z" transform="translate(-68.237 -64.556)"/>
    <path class="cls-12" d="M413.99,204.5H399.547l-3.56,8.99h-9.2l16.928-40.89H410.5l16.928,40.89h-9.673Zm-12.092-6.38h10.076l-3.493-9.048-1.41-6.38h-.336l-1.411,6.438Z" transform="translate(-68.237 -64.556)"/>
    <path class="cls-12" d="M443.143,192.319l-3.694-6.38h-.336l1.075,6.38v21.17h-8.734V172.6h6.718l17.8,21.634,3.559,6.206h.336l-1.074-6.206V172.889h8.733v40.89H460.81Z" transform="translate(-68.237 -64.556)"/>
    <path class="cls-12" d="M507.228,182.343a10.831,10.831,0,0,1-.435,3.016,7.824,7.824,0,0,1-1.435,2.755,9.6,9.6,0,0,1-2.605,2.2,12.316,12.316,0,0,1-3.873,1.421v.348a17.571,17.571,0,0,1,3.81.986,9.892,9.892,0,0,1,3.14,1.914,8.7,8.7,0,0,1,2.107,2.958,10.139,10.139,0,0,1,.768,4.118,9.459,9.459,0,0,1-1.545,5.423,11.9,11.9,0,0,1-4.13,3.741,20.717,20.717,0,0,1-5.878,2.146,32.725,32.725,0,0,1-6.786.7h-2.921q-1.781,0-3.829-.087t-4.166-.261a34.19,34.19,0,0,1-3.862-.522v-40.02q1.276-.174,2.922-.348t3.527-.29q1.88-.115,3.863-.174t3.929-.058a46.463,46.463,0,0,1,6.415.435,20.47,20.47,0,0,1,5.577,1.537,9.861,9.861,0,0,1,3.929,3.074A8.092,8.092,0,0,1,507.228,182.343Zm-19.683,7.6q.94,0,2.184-.057t2.049-.172a12.91,12.91,0,0,0,4.4-2.066,4.305,4.305,0,0,0,1.847-3.616,4.263,4.263,0,0,0-.672-2.468,4.8,4.8,0,0,0-1.78-1.55,8.415,8.415,0,0,0-2.519-.8,18.392,18.392,0,0,0-2.956-.23q-1.748,0-3.225.058t-2.283.171v10.733Zm2.914,17.458a14.687,14.687,0,0,0,3.2-.344,9.036,9.036,0,0,0,2.737-1.062,5.955,5.955,0,0,0,1.912-1.809,4.563,4.563,0,0,0,.726-2.584,4.712,4.712,0,0,0-.858-2.985,5.681,5.681,0,0,0-2.243-1.694,10.309,10.309,0,0,0-3.1-.775,34.208,34.208,0,0,0-3.427-.173H484.59v11.082a4.55,4.55,0,0,0,1.055.172q.723.057,1.549.086t1.715.058Q489.8,207.4,490.459,207.4Z" transform="translate(-68.237 -64.556)"/>
    <path class="cls-12" d="M538.464,204.5H524.022l-3.561,8.99h-9.2l16.928-40.89h6.785l16.928,40.89h-9.673Zm-12.092-6.38h10.077l-3.494-9.048-1.41-6.38h-.336l-1.411,6.438Z" transform="translate(-68.237 -64.556)"/>
    <path class="cls-12" d="M567.617,192.319l-3.694-6.38h-.336l1.075,6.38v21.17h-8.733V172.6h6.718l17.8,21.634,3.559,6.206h.336l-1.074-6.206V172.889H592v40.89h-6.718Z" transform="translate(-68.237 -64.556)"/>
  </g>
</svg>
